Coordinates
version=1
nRows=7
nColumns=46
inDegrees=yes

Units are S.I. units (second, meters, Newtons, ...)
Angles are in degrees.

endheader
time	pelvis_tilt	pelvis_list	pelvis_rotation	pelvis_tx	pelvis_ty	pelvis_tz	bb_angle	bb_tx	bb_ty	bb_tz	hip_flexion_r	hip_adduction_r	hip_rotation_r	knee_angle_r	knee_angle_r_beta	ankle_angle_r	subtalar_angle_r	mtp_angle_r	crank_angle_r	hip_flexion_l	hip_adduction_l	hip_rotation_l	knee_angle_l	knee_angle_l_beta	ankle_angle_l	subtalar_angle_l	mtp_angle_l	crank_angle_l	lumbar_extension	lumbar_bending	lumbar_rotation	arm_flex_r	arm_add_r	arm_rot_r	elbow_flex_r	pro_sup_r	wrist_flex_r	wrist_dev_r	arm_flex_l	arm_add_l	arm_rot_l	elbow_flex_l	pro_sup_l	wrist_flex_l	wrist_dev_l
      5.00500000	    -33.58095862	      4.18125299	     13.93485938	      0.42795713	      1.16334263	     -0.23900233	      0.00000000	      0.50000000	      0.00000000	      0.25000000	     30.62576442	    -14.41462549	    -15.47818155	     18.37807722	      0.32075796	    -16.48320910	     20.07370242	      0.00000000	      0.00000000	     87.78691936	      1.40573975	      2.12074580	    105.69952044	      1.84480465	     -7.48165344	     -0.48254498	      0.00000000	      0.00000000	    -60.88181870	      4.39774029	    -20.82532395	     37.79622721	     -9.87738591	     22.32509002	     99.56053481	     48.75668473	      0.00000000	      0.00000000	     25.52301667	    -54.35517504	     11.84065424	    115.40269377	     55.05087759	      0.00000000	      0.00000000
      5.01000000	    -33.91635424	      3.83597404	     14.08622136	      0.42791988	      1.16425588	     -0.23819096	      0.00000000	      0.50000000	      0.00000000	      0.25000000	     30.37911004	    -14.16392375	    -15.99297583	     18.28630801	      0.31915628	    -17.04676480	     20.40934746	      0.00000000	      0.00000000	     88.88227508	      1.45952707	      2.23531166	    105.26130447	      1.83715634	     -7.69650657	     -0.40429648	      0.00000000	      0.00000000	    -60.74487991	      4.44477156	    -20.91372435	     37.90404081	     -9.60934298	     22.34144496	     99.46705577	     48.74430165	      0.00000000	      0.00000000	     25.68672355	    -54.63999962	     11.64377402	    115.61012291	     55.05291093	      0.00000000	      0.00000000
      5.01500000	    -34.28080255	      3.32097917	     14.34573335	      0.42770829	      1.16533979	     -0.23768625	      0.00000000	      0.50000000	      0.00000000	      0.25000000	     30.30916140	    -13.82502951	    -16.56975293	     18.50442053	      0.32296306	    -17.42590632	     20.45752632	      0.00000000	      0.00000000	     89.89775851	      1.64951770	      2.52038409	    104.62256188	      1.82600818	     -7.68297384	     -0.32610557	      0.00000000	      0.00000000	    -60.54031207	      4.73560671	    -21.00730226	     38.10955111	     -9.20699633	     22.37114619	     99.21581819	     48.70641469	      0.00000000	      0.00000000	     25.56258304	    -54.94655706	     11.59660743	    115.96751666	     55.10275572	      0.00000000	      0.00000000
      5.02000000	    -34.59229363	      2.89902655	     14.49811387	      0.42741718	      1.16687159	     -0.23715955	      0.00000000	      0.50000000	      0.00000000	      0.25000000	     30.36729370	    -13.51473887	    -16.80344654	     18.98508393	      0.33135222	    -17.82576807	     20.35564162	      0.00000000	      0.00000000	     90.65185187	      1.77946972	      2.70732358	    103.79578988	      1.81157828	     -7.57017480	     -0.19283665	      0.00000000	      0.00000000	    -60.48140257	      4.87720120	    -20.94899428	     38.28667118	     -9.02153423	     22.32850669	     98.98552056	     48.66407854	      0.00000000	      0.00000000	     25.56428861	    -55.24618744	     11.31079054	    116.24010548	     55.10994187	      0.00000000	      0.00000000
      5.02500000	    -35.17807085	      2.36929758	     14.60337702	      0.42671854	      1.16793174	     -0.23691872	      0.00000000	      0.50000000	      0.00000000	      0.25000000	     31.01986482	    -13.18427823	    -16.84129123	     19.96198012	      0.34840228	    -17.79354991	     19.61747637	      0.00000000	      0.00000000	     91.53250352	      1.94072438	      3.02965718	    102.83850880	      1.79487058	     -7.08921108	      0.13504515	      0.00000000	      0.00000000	    -60.07412323	      5.35677210	    -24.60466265	     40.83440650	     -5.81491952	     25.42560965	     95.12893808	     48.54401383	      0.00000000	      0.00000000	     14.03494533	    -57.14807287	     -0.61822112	    120.08903067	     54.44188302	      0.00000000	      0.00000000
      5.03000000	    -35.55479824	      1.89884930	     14.75931080	      0.42623055	      1.16971642	     -0.23699250	      0.00000000	      0.50000000	      0.00000000	      0.25000000	     31.55798801	    -12.92185426	    -16.94388892	     21.14675169	      0.36908044	    -17.84889468	     18.69834717	      0.00000000	      0.00000000	     91.91630394	      2.27205616	      3.36999651	    101.66908013	      1.77446020	     -6.27793611	      0.37529905	      0.00000000	      0.00000000	    -60.00498545	      5.62539203	    -24.52780777	     41.17228780	     -5.66070062	     25.31772958	     95.07819414	     48.52608007	      0.00000000	      0.00000000	     14.27978455	    -57.20648830	     -0.83805241	    120.24465514	     54.43247696	      0.00000000	      0.00000000
      5.03500000	    -35.93730180	      1.41867859	     14.83368426	      0.42561422	      1.17168576	     -0.23686874	      0.00000000	      0.50000000	      0.00000000	      0.25000000	     32.31244421	    -12.57883124	    -16.73349200	     22.60401398	      0.39451447	    -17.83751611	     17.39314071	      0.00000000	      0.00000000	     92.05695959	      2.46394569	      3.71967937	    100.27932128	      1.75020433	     -5.13649818	      0.77061891	      0.00000000	      0.00000000	    -59.92682160	      5.84671742	    -24.41516667	     41.48764368	     -5.45225388	     25.26307070	     94.94163836	     48.49917010	      0.00000000	      0.00000000	     14.44219151	    -57.12756415	     -1.04692679	    120.42387359	     54.43112090	      0.00000000	      0.00000000
